<?xml version="1.0" standalone="no"?>
<!DOCTYPE svg PUBLIC "-//W3C//DTD SVG 20010904//EN"
 "http://www.w3.org/TR/2001/REC-SVG-20010904/DTD/svg10.dtd">
<svg version="1.0" xmlns="http://www.w3.org/2000/svg"
 width="637.000000pt" height="637.000000pt" viewBox="0 0 637.000000 637.000000"
 preserveAspectRatio="xMidYMid meet">
<metadata>
Created by potrace 1.11, written by Peter Selinger 2001-2013
</metadata>
<g transform="translate(0.000000,637.000000) scale(0.100000,-0.100000)"
fill="#000000" stroke="none">
<path d="M3007 5473 c-2 -4 -3 -15 -2 -24 2 -9 6 -85 9 -170 4 -85 9 -185 11
-224 2 -38 7 -133 10 -210 4 -77 8 -167 10 -200 2 -33 7 -125 10 -205 3 -80 8
-176 10 -215 2 -38 7 -131 10 -205 3 -74 8 -164 10 -200 2 -36 6 -132 10 -215
3 -82 8 -179 10 -215 2 -36 7 -132 10 -215 4 -82 9 -158 11 -169 6 -33 11 -28
11 11 -1 43 12 523 18 683 2 58 7 202 10 320 6 217 12 441 20 715 7 242 17
615 19 680 l1 60 -97 3 c-53 1 -98 -1 -101 -5z"/>
<path d="M3417 5473 c-3 -4 -8 -53 -11 -108 -4 -55 -9 -118 -11 -140 -3 -22
-7 -71 -10 -110 -3 -38 -7 -99 -10 -135 -3 -36 -8 -94 -11 -130 -8 -113 -14
-177 -29 -360 -3 -30 -7 -89 -10 -130 -3 -41 -8 -100 -10 -130 -3 -30 -7 -86
-10 -125 -3 -38 -8 -90 -10 -115 -2 -25 -7 -81 -10 -125 -3 -44 -8 -100 -10
-125 -2 -25 -7 -83 -10 -130 -4 -47 -8 -98 -10 -115 -2 -16 -6 -75 -10 -130
-4 -55 -8 -113 -10 -130 -2 -16 -6 -77 -10 -135 -4 -58 -10 -109 -13 -115 -3
-7 -1 -7 6 0 5 6 13 28 16 50 3 22 8 51 10 65 12 62 36 209 42 255 3 28 8 59
10 70 3 11 7 36 10 55 3 19 9 60 14 90 13 79 15 89 60 365 22 138 59 360 81
495 22 135 42 256 44 270 2 14 16 97 30 185 14 88 28 174 31 190 2 17 6 41 9
55 3 14 7 39 9 55 3 17 12 74 21 127 22 145 27 133 -62 147 -43 7 -88 15 -99
18 -12 2 -24 1 -27 -4z"/>
<path d="M2730 5439 c-30 -4 -74 -9 -98 -10 -48 -3 -46 11 -22 -121 5 -32 14
-82 19 -110 5 -29 12 -66 15 -83 3 -16 19 -106 36 -200 17 -93 33 -181 35
-195 3 -14 9 -52 15 -85 5 -33 23 -134 40 -225 17 -91 32 -176 35 -190 27
-156 36 -209 40 -230 5 -27 92 -515 100 -565 3 -16 8 -41 11 -55 3 -13 7 -40
10 -60 2 -19 7 -42 10 -51 2 -9 7 -32 9 -50 3 -19 7 -45 10 -59 7 -34 25 -143
25 -153 0 -5 5 -5 10 -2 6 4 8 9 6 13 -4 7 -12 75 -21 192 -3 36 -10 106 -15
155 -5 50 -12 124 -16 165 -3 41 -7 82 -9 90 -1 8 -6 56 -10 105 -4 50 -8 97
-10 105 -1 8 -6 54 -9 102 -4 48 -9 98 -11 110 -2 13 -6 59 -10 103 -3 44 -8
91 -10 105 -2 14 -7 61 -10 104 -4 43 -8 86 -10 95 -1 9 -6 57 -9 106 -4 50
-9 101 -11 115 -2 14 -7 61 -10 105 -4 44 -8 94 -10 110 -3 17 -7 57 -10 90
-3 33 -10 107 -15 165 -6 58 -13 132 -16 165 -9 105 -15 140 -22 146 -4 3 -32
2 -62 -2z"/>
<path d="M3697 4843 c-65 -313 -147 -705 -182 -873 -35 -168 -66 -316 -68
-330 -6 -30 -21 -103 -82 -390 -67 -322 -63 -324 30 -10 36 124 77 261 90 305
41 134 326 1099 330 1115 2 8 49 168 104 354 56 187 98 342 96 345 -6 5 -173
50 -190 51 -6 0 -63 -255 -128 -567z"/>
<path d="M2288 5352 c-49 -14 -88 -31 -88 -38 0 -6 13 -54 29 -105 16 -52 52
-166 79 -254 28 -88 105 -335 172 -550 67 -214 169 -541 227 -725 57 -184 111
-355 118 -380 29 -98 94 -307 105 -338 23 -63 21 -24 -5 79 -25 103 -125 538
-150 654 -7 33 -43 191 -79 350 -100 431 -117 508 -206 895 -94 414 -101 440
-109 439 -3 0 -45 -12 -93 -27z"/>
<path d="M4168 5202 c-20 -59 -73 -213 -118 -342 -45 -129 -101 -291 -125
-360 -81 -233 -203 -584 -285 -820 -45 -129 -86 -246 -90 -260 -4 -14 -31 -90
-59 -170 -78 -219 -89 -275 -26 -130 15 36 40 92 55 125 15 33 56 123 90 200
34 77 76 169 92 205 17 36 59 130 95 210 36 80 80 178 99 218 19 41 34 75 34
77 0 2 15 36 34 77 18 40 46 100 61 133 15 33 33 74 40 90 13 28 144 321 242
540 25 55 58 128 74 163 16 35 29 65 29 67 0 3 -152 68 -185 79 -19 5 -24 -5
-57 -102z"/>
<path d="M1990 5233 c-8 -3 -33 -13 -55 -23 -22 -9 -57 -23 -77 -31 -21 -7
-38 -18 -38 -24 0 -6 13 -39 29 -72 17 -33 68 -143 114 -244 47 -101 103 -222
125 -269 22 -47 51 -110 65 -140 14 -30 45 -98 70 -150 24 -52 85 -183 135
-290 49 -107 111 -239 136 -293 25 -55 46 -100 46 -102 0 -2 26 -59 59 -127
32 -68 70 -148 84 -178 14 -30 42 -91 62 -135 21 -44 53 -113 71 -154 19 -41
36 -72 39 -69 3 2 -7 36 -21 74 -116 309 -292 788 -310 844 -8 25 -19 54 -24
65 -5 11 -36 94 -69 185 -33 91 -96 264 -140 385 -45 121 -125 340 -179 487
-53 148 -99 268 -102 267 -3 0 -12 -3 -20 -6z"/>
<path d="M4456 4867 c-77 -155 -306 -616 -509 -1025 -203 -409 -367 -745 -365
-747 2 -3 53 75 113 173 60 97 172 281 251 407 265 429 811 1320 822 1342 11
20 6 25 -77 77 -48 31 -90 56 -92 56 -2 0 -67 -127 -143 -283z"/>
<path d="M1542 5018 c-94 -57 -93 -39 -7 -173 59 -92 193 -303 215 -340 24
-40 659 -1043 706 -1115 80 -124 285 -452 290 -465 3 -7 12 -16 20 -19 10 -4
7 7 -9 37 -14 23 -53 96 -87 162 -35 66 -77 147 -95 180 -18 33 -63 119 -100
190 -37 72 -82 157 -100 190 -18 33 -58 110 -90 170 -32 61 -75 142 -95 180
-21 39 -68 129 -105 200 -37 72 -80 153 -95 180 -15 28 -53 100 -85 160 -32
61 -75 142 -95 180 -21 39 -68 127 -104 197 -37 70 -71 130 -74 132 -4 2 -44
-18 -90 -46z"/>
<path d="M4855 4798 c-53 -79 -184 -271 -290 -428 -107 -157 -250 -368 -319
-470 -141 -208 -240 -354 -392 -577 -101 -148 -104 -153 -77 -152 23 0 40 16
93 82 102 128 394 491 405 503 5 6 24 28 40 50 57 73 489 609 495 614 18 16
310 389 310 396 -1 8 -65 56 -141 107 l-27 17 -97 -142z"/>
<path d="M1210 4794 c-36 -30 -71 -60 -78 -68 -11 -11 2 -31 78 -122 120 -143
91 -108 380 -454 140 -168 262 -314 272 -325 9 -11 191 -229 404 -485 214
-256 396 -474 406 -484 36 -39 17 -2 -41 77 -32 45 -172 244 -311 442 -244
347 -374 533 -675 960 -77 110 -147 210 -155 222 -116 167 -206 292 -210 292
-3 0 -34 -25 -70 -55z"/>
<path d="M5239 4642 c-19 -20 -70 -78 -114 -127 -68 -77 -113 -127 -160 -179
-5 -6 -46 -51 -90 -101 -44 -49 -87 -97 -95 -105 -8 -8 -49 -53 -90 -100 -41
-47 -86 -97 -100 -111 -14 -14 -52 -57 -85 -94 -33 -38 -65 -73 -70 -79 -6 -6
-85 -94 -175 -196 -91 -101 -184 -204 -207 -230 -24 -25 -43 -48 -43 -52 0 -3
34 6 75 20 70 26 82 35 241 187 91 88 178 171 193 184 14 13 73 69 131 125 58
55 191 182 295 282 105 99 230 219 278 265 49 46 116 110 150 142 l60 58 -74
75 c-40 40 -76 74 -80 74 -3 0 -21 -17 -40 -38z"/>
<path d="M905 4519 c-41 -41 -75 -78 -75 -83 0 -5 13 -21 29 -35 15 -14 75
-69 131 -121 56 -52 115 -106 130 -120 15 -14 78 -72 140 -130 62 -58 118
-109 124 -115 55 -50 295 -272 307 -284 9 -9 67 -63 130 -121 94 -87 229 -212
275 -255 6 -5 57 -53 114 -105 57 -52 126 -117 154 -143 113 -108 219 -202
230 -206 10 -3 -26 39 -79 94 -11 11 -49 54 -85 95 -36 40 -74 83 -85 95 -11
11 -42 46 -70 76 -136 151 -202 224 -220 243 -11 12 -121 134 -245 271 -124
138 -229 255 -235 261 -5 6 -48 53 -95 105 -47 51 -92 100 -100 109 -8 9 -51
56 -95 106 -44 49 -82 91 -85 94 -4 4 -165 182 -211 234 -5 5 -41 -22 -84 -65z"/>
<path d="M5548 4383 c-1 -5 -97 -91 -213 -192 -115 -101 -228 -200 -251 -220
-22 -20 -156 -137 -297 -260 -142 -123 -256 -226 -253 -228 4 -4 38 15 121 68
17 11 84 53 150 93 l120 74 5 -27 c5 -29 8 -27 451 302 183 136 257 190 285
209 41 28 41 34 8 73 -14 17 -42 49 -61 73 -33 39 -57 52 -65 35z"/>
<path d="M657 4221 c-21 -27 -48 -59 -59 -70 -11 -12 -18 -26 -16 -31 2 -6
248 -184 548 -397 300 -214 627 -446 728 -518 100 -71 280 -199 398 -283 118
-85 217 -152 220 -150 2 3 -59 58 -137 124 -78 65 -156 131 -173 145 -17 15
-110 94 -206 175 -97 82 -198 167 -224 189 -27 22 -58 48 -70 58 -204 178
-950 803 -959 804 -6 2 -29 -19 -50 -46z"/>
<path d="M5630 3946 c-107 -69 -299 -191 -426 -272 l-231 -147 8 -37 c5 -20
10 -52 11 -70 3 -34 20 -49 41 -33 6 6 46 28 87 50 41 22 93 51 115 63 22 13
105 59 185 103 80 44 215 118 300 165 85 47 165 91 177 96 13 6 23 15 23 19 0
10 -78 168 -89 179 -4 5 -94 -48 -201 -116z"/>
<path d="M409 3847 l-47 -93 77 -41 c42 -22 135 -71 206 -108 213 -111 335
-175 430 -225 50 -26 142 -74 205 -108 63 -33 158 -82 210 -109 52 -28 149
-78 215 -113 66 -35 156 -82 200 -105 44 -23 152 -79 240 -125 88 -46 166 -87
173 -93 7 -5 16 -6 20 -2 4 4 2 9 -4 12 -9 3 -1568 1006 -1772 1140 -46 30
-89 56 -95 58 -7 3 -32 -36 -58 -88z"/>
<path d="M5809 3607 c-114 -56 -289 -142 -390 -191 -101 -49 -254 -124 -339
-165 -120 -59 -304 -172 -418 -256 -7 -5 12 -35 22 -35 6 0 72 24 146 53 74
30 293 116 485 192 712 281 789 313 792 322 4 12 -77 183 -86 182 -3 0 -99
-46 -212 -102z"/>
<path d="M4855 3612 c-115 -74 -309 -179 -432 -233 -391 -174 -1163 -441
-1883 -653 -280 -82 -693 -206 -696 -209 -3 -3 -11 -121 -16 -247 l-3 -75 155
-77 c138 -68 207 -101 448 -210 34 -15 64 -28 67 -28 3 0 43 -18 160 -70 11
-5 106 -45 210 -89 105 -43 237 -100 295 -125 108 -48 147 -65 430 -185 167
-70 324 -141 505 -226 55 -26 154 -69 220 -97 66 -27 190 -80 275 -118 205
-90 219 -93 268 -69 59 30 73 50 79 116 4 53 2 63 -30 115 -33 53 -135 179
-221 272 -20 21 -36 41 -36 43 0 3 19 24 43 47 79 75 148 196 186 321 25 85
32 163 14 152 -5 -3 -30 -8 -58 -12 -131 -17 -127 -15 -140 -68 -13 -51 -70
-120 -131 -158 -40 -24 -129 -28 -170 -6 -68 35 -128 134 -139 227 -4 30 -8
69 -10 86 -3 19 0 31 8 31 38 1 296 18 447 29 146 11 153 11 183 13 l28 1 -2
153 c-3 177 -20 269 -74 404 -55 137 -140 251 -237 316 l-37 25 77 50 c282
184 312 211 312 280 0 27 -48 293 -53 298 -1 1 -20 -10 -42 -24z m-1025 -815
c0 -2 -14 -41 -31 -87 -27 -74 -38 -114 -65 -235 -10 -48 -13 -473 -3 -550 5
-39 20 -108 33 -153 l24 -83 -31 6 c-18 4 -131 31 -252 61 -159 40 -248 68
-320 101 -55 25 -117 52 -138 59 -21 8 -66 28 -100 46 -96 49 -370 234 -391
264 -10 14 -20 43 -23 65 -9 66 -4 69 297 184 80 30 170 66 200 80 30 14 96
37 145 51 185 54 354 104 495 147 151 46 160 49 160 44z m701 -135 c71 -28
177 -186 173 -258 -3 -50 -4 -53 -16 -49 -7 2 -53 6 -103 9 -158 10 -335 31
-335 42 0 1 7 33 15 69 20 85 74 169 122 188 39 15 104 15 144 -1z"/>
<path d="M241 3488 c-29 -51 -50 -97 -47 -103 2 -6 19 -16 37 -22 19 -6 201
-75 404 -153 204 -79 386 -148 405 -155 111 -41 1068 -408 1081 -416 11 -6 22
-3 33 10 18 19 21 41 7 41 -5 0 -81 34 -168 76 -87 42 -203 98 -258 124 -55
26 -163 78 -240 115 -77 37 -189 91 -250 120 -60 29 -177 85 -260 125 -82 40
-186 89 -230 110 -44 21 -165 79 -269 129 -104 50 -190 91 -192 91 -1 0 -25
-41 -53 -92z"/>
<path d="M5481 3105 c-382 -129 -696 -237 -698 -239 -4 -4 46 -86 53 -86 2 0
319 79 705 175 385 96 702 175 704 175 2 0 -5 28 -15 63 -9 34 -23 81 -29 105
-7 23 -15 42 -19 41 -4 0 -319 -106 -701 -234z"/>
<path d="M125 3188 c-6 -20 -44 -202 -42 -203 1 -1 353 -85 782 -188 429 -103
833 -200 897 -215 l117 -29 31 32 31 32 -98 32 c-54 18 -186 61 -293 96 -107
35 -397 129 -645 210 -247 80 -518 168 -600 196 -162 53 -174 55 -180 37z"/>
<path d="M6085 2890 c-184 -37 -216 -44 -280 -55 -16 -3 -86 -16 -155 -30 -69
-13 -136 -26 -150 -29 -53 -9 -508 -97 -557 -107 l-53 -10 0 -45 0 -45 43 5
c23 3 89 10 147 16 58 6 121 13 140 15 19 2 53 6 75 9 22 3 85 10 140 16 55 6
118 13 140 15 22 3 65 7 95 10 30 3 64 7 75 10 11 2 56 7 100 10 43 4 88 9
100 11 11 2 49 6 85 9 36 3 76 8 90 10 14 2 50 7 80 10 30 3 69 8 85 10 17 2
35 4 41 4 18 1 -18 195 -36 197 -8 1 -100 -15 -205 -36z"/>
<path d="M53 2797 c-3 -5 -16 -56 -28 -113 -20 -94 -21 -104 -6 -105 9 0 25
-2 36 -3 11 -2 52 -6 90 -10 39 -4 108 -11 155 -16 47 -5 114 -12 150 -15 36
-4 76 -8 90 -10 14 -2 59 -7 100 -10 41 -3 86 -8 100 -10 14 -2 52 -6 85 -10
83 -7 146 -14 245 -25 47 -5 114 -12 150 -15 36 -3 79 -8 95 -10 17 -2 59 -6
95 -10 36 -3 83 -7 105 -10 59 -7 123 -14 188 -20 l57 -6 0 39 c0 38 -1 40
-37 45 -21 3 -110 20 -198 37 -88 17 -171 33 -185 36 -14 2 -36 7 -50 9 -14 3
-36 8 -50 10 -14 3 -104 20 -200 39 -97 19 -187 37 -200 39 -51 9 -559 109
-668 131 -67 13 -115 19 -119 13z"/>
<path d="M6237 2533 c-2 -1 -83 -7 -272 -19 -44 -2 -105 -7 -135 -9 -30 -2
-102 -7 -160 -10 -58 -4 -121 -8 -140 -10 -19 -2 -91 -6 -160 -10 -69 -4 -132
-8 -140 -10 -12 -2 -233 -16 -287 -18 -9 0 -13 -18 -13 -53 0 -47 2 -52 23
-51 20 1 484 -13 607 -18 168 -7 600 -19 695 -19 l110 -1 0 118 0 117 -63 -2
c-35 -2 -64 -4 -65 -5z"/>
<path d="M10 2265 l0 -107 148 6 c81 4 203 9 272 11 69 3 184 7 255 10 72 3
195 7 275 10 80 3 192 7 250 10 58 2 188 7 290 11 102 3 196 7 210 8 21 1 25
6 28 39 l3 37 -43 1 c-24 1 -63 3 -88 4 -25 1 -126 5 -225 9 -99 4 -214 9
-255 11 -41 2 -145 7 -230 10 -145 5 -200 7 -500 20 -63 3 -177 7 -252 10
l-138 6 0 -106z"/>
</g>
</svg>
