<svg width="637" height="461" viewBox="0 0 637 461" fill="none" xmlns="http://www.w3.org/2000/svg">
<path d="M173.5 319.5L1.5 312.5V332.5L173.5 326V319.5Z" fill="black" stroke="black"/>
<path d="M1 290.5L175.5 308.5V302L5.5 269L1 290.5Z" fill="black"/>
<path d="M193 287.5L13.5 229L8.5 250L187.5 293L193 287.5Z" fill="black"/>
<path d="M29.5 191.5L217 281.5L214 285L19 210.5L29.5 191.5Z" fill="black"/>
<path d="M46 155.5L234.5 277L37 173.5L46 155.5Z" fill="black"/>
<path d="M70.5 122L248.5 272.5L58 137L70.5 122Z" fill="black"/>
<path d="M1 290.5L175.5 308.5V302L5.5 269L1 290.5Z" stroke="black"/>
<path d="M193 287.5L13.5 229L8.5 250L187.5 293L193 287.5Z" stroke="black"/>
<path d="M29.5 191.5L217 281.5L214 285L19 210.5L29.5 191.5Z" stroke="black"/>
<path d="M46 155.5L234.5 277L37 173.5L46 155.5Z" stroke="black"/>
<path d="M70.5 122L248.5 272.5L58 137L70.5 122Z" stroke="black"/>
<path d="M259.5 269L98 90.5L83 105.5L259.5 269Z" fill="black"/>
<path d="M128 64.5L112.5 77.5L269 265L128 64.5Z" fill="black"/>
<path d="M277.5 259.5L163 42.5L146.5 52.5L277.5 259.5Z" fill="black"/>
<path d="M201 25.5L182 33L285.5 256L201 25.5Z" fill="black"/>
<path d="M220 17L238.5 11.5L294.5 256L220 17Z" fill="black"/>
<path d="M279.5 5L259.5 7L303 250.5L279.5 5Z" fill="black"/>
<path d="M320 1.5H301L313 250.5L320 1.5Z" fill="black"/>
<path d="M322 250.5L362 5L342 1.5L322 250.5Z" fill="black"/>
<path d="M259.5 269L98 90.5L83 105.5L259.5 269Z" stroke="black"/>
<path d="M128 64.5L112.5 77.5L269 265L128 64.5Z" stroke="black"/>
<path d="M277.5 259.5L163 42.5L146.5 52.5L277.5 259.5Z" stroke="black"/>
<path d="M201 25.5L182 33L285.5 256L201 25.5Z" stroke="black"/>
<path d="M220 17L238.5 11.5L294.5 256L220 17Z" stroke="black"/>
<path d="M279.5 5L259.5 7L303 250.5L279.5 5Z" stroke="black"/>
<path d="M320 1.5H301L313 250.5L320 1.5Z" stroke="black"/>
<path d="M322 250.5L362 5L342 1.5L322 250.5Z" stroke="black"/>
<path d="M401.5 13.5L382 8L332 248.5L401.5 13.5Z" fill="black"/>
<path d="M440.5 26.5L421 18.5L342.5 244.5L440.5 26.5Z" fill="black"/>
<path d="M477.5 45.5L460 34.5L358 240L477.5 45.5Z" fill="black"/>
<path d="M512 67.5L495.5 55.5L376 231.5H380L512 67.5Z" fill="black"/>
<path d="M542.5 96L528 81L401.5 222L415 217.5L542.5 96Z" fill="black"/>
<path d="M570 125.5L557 110L453 201L493.5 176V182L570 125.5Z" fill="black"/>
<path d="M592 160.5L582.5 142.5L498 196.5L500.5 211L592 160.5Z" fill="black"/>
<path d="M611 196.5L602.5 178.5L493.5 231.5L466.5 250L468 253L611 196.5Z" fill="black"/>
<path d="M618.5 215.5L478.5 262.5L483.5 270.5L624 235.5L618.5 215.5Z" fill="black"/>
<path d="M630 256.5L489.5 283.5V291.5L633 275.5L630 256.5Z" fill="black"/>
<path d="M636 295.5L493.5 305V314L636 318.5V295.5Z" fill="black"/>
<path d="M401.5 13.5L382 8L332 248.5L401.5 13.5Z" stroke="black"/>
<path d="M440.5 26.5L421 18.5L342.5 244.5L440.5 26.5Z" stroke="black"/>
<path d="M477.5 45.5L460 34.5L358 240L477.5 45.5Z" stroke="black"/>
<path d="M512 67.5L495.5 55.5L376 231.5H380L512 67.5Z" stroke="black"/>
<path d="M542.5 96L528 81L401.5 222L415 217.5L542.5 96Z" stroke="black"/>
<path d="M570 125.5L557 110L453 201L493.5 176V182L570 125.5Z" stroke="black"/>
<path d="M592 160.5L582.5 142.5L498 196.5L500.5 211L592 160.5Z" stroke="black"/>
<path d="M611 196.5L602.5 178.5L493.5 231.5L466.5 250L468 253L611 196.5Z" stroke="black"/>
<path d="M618.5 215.5L478.5 262.5L483.5 270.5L624 235.5L618.5 215.5Z" stroke="black"/>
<path d="M630 256.5L489.5 283.5V291.5L633 275.5L630 256.5Z" stroke="black"/>
<path d="M636 295.5L493.5 305V314L636 318.5V295.5Z" stroke="black"/>
<path d="M183 329.5L184.5 297.5L302.5 262.5L325.5 254.5L363 242.5L403 227.5L425.5 219L439.5 213L456 205.5L476.5 194L489.5 186L490.5 191.5L492.5 202L494.5 212L494 219.5L490 225L475.5 234.5L464.5 242.5L456 247.5V249L461 252L467.5 257.5L473.5 264.5L478.5 272L482.5 281L486.5 291.5L488.5 299.5L490 307.5L490.482 337.5L477.81 338.218L466.307 339.388L454.513 339.973L442.913 340.558L432.775 341.337L424 341.952L424.5 309L429.146 310.224L436.391 311.283L442.391 311.772L449.334 312.403L459.686 313.401L471 313.958V305L464.5 291.5L456 283.5L449.5 281H442.12L435 283.5L427.5 295L424 311L423.5 323.1L423.21 327.659V332.603L423.5 335.668V337.5V342.795L424.5 348.542L424.88 355.355H373.332L372.966 348.542L372.5 337.5V323.185L372.966 312.126L374.242 300.146L376.781 288.902L379.991 278.981L384.5 268L307 291L298.5 295L264.5 308L257.821 310.839L253 314.364L252.533 318.655L253 322.794L254.602 326.012L257.821 329.844L267.706 336.741L274 341L286.5 349L298.5 355.5L310 360L327.5 368L346 373L368.5 378.5L379.488 380.89L378.424 376.991L376.723 370.965L374.738 363.734L373.332 356H418H424.88L426.379 361.344L428.795 366.364L431.547 370.536L434.765 374.367L438.061 376.82L442.5 378.5L447.87 378.965L453.5 378.5L457.832 375.9L461 373L465.5 369L468 366L470 362.5L471 356L490 353V357.708L488.375 363.38L486.5 371L481.995 381.244L477.5 388.758L473.701 394.571L468.384 400.101L464.5 403V405L470.794 411.727L477.5 419.454L487.737 431.647L493.196 441.359L493.692 446.747L491.99 454.119L486.107 458.656L480.152 460.074L470.369 456.529L445.5 445.5L418 434L395 423L364.5 409.5L334.5 397L301.5 382.5L274 371L253 362L223.5 349L183 329.5Z" fill="black"/>
<path d="M253 362L223.5 349L183 329.5L184.5 297.5L302.5 262.5M253 362L267.706 336.741M253 362L274 371L301.5 382.5L334.5 397L364.5 409.5L395 423L418 434L445.5 445.5L470.369 456.529L480.152 460.074L486.107 458.656L491.99 454.119L493.692 446.747L493.196 441.359L487.737 431.647L477.5 419.454L470.794 411.727L464.5 405V403L468.384 400.101L473.701 394.571M267.706 336.741L257.821 329.844L254.602 326.012L253 322.794L252.533 318.655L253 314.364L257.821 310.839L264.5 308L298.5 295L307 291M267.706 336.741L274 341L286.5 349L298.5 355.5L310 360L327.5 368L346 373L368.5 378.5L379.488 380.89M307 291L302.5 262.5M307 291L384.5 268M302.5 262.5L325.5 254.5L363 242.5L403 227.5L425.5 219L439.5 213M384.5 268L456 247.5M384.5 268L408 299.5M384.5 268L379.991 278.981L376.781 288.902L374.242 300.146L372.966 312.126L372.5 323.185V337.5L372.966 348.542L373.332 355.355H424.88L424.5 348.542L423.5 342.795V337.5V335.668L423.21 332.603V327.659L423.5 323.1L424 311M456 247.5L439.5 213M456 247.5L464.5 242.5L475.5 234.5L490 225L494 219.5L494.5 212L492.5 202L490.5 191.5M456 247.5L490.5 191.5M456 247.5V249L461 252L467.5 257.5L473.5 264.5L478.5 272L482.5 281L486.5 291.5L488.5 299.5L490 307.5L490.482 337.5L477.81 338.218L466.307 339.388L454.513 339.973L442.913 340.558L432.775 341.337L424 341.952L424.5 309L429.146 310.224L436.391 311.283L442.391 311.772L449.334 312.403L459.686 313.401L471 313.958V305L464.5 291.5L456 283.5L449.5 281H442.12L435 283.5L427.5 295L424 311M456 247.5L408 299.5M439.5 213L456 205.5L476.5 194L489.5 186L490.5 191.5M424 311L408 299.5M473.701 394.571L456 392.5L379.488 380.89M473.701 394.571L477.5 388.758L481.995 381.244L486.5 371L488.375 363.38L490 357.708V353L471 356L470 362.5L468 366L465.5 369L461 373L457.832 375.9L453.5 378.5L447.87 378.965L442.5 378.5L438.061 376.82L434.765 374.367L431.547 370.536L428.795 366.364L426.379 361.344L424.88 356H418H373.332L374.738 363.734L376.723 370.965L378.424 376.991L379.488 380.89" stroke="black"/>
</svg>
